<svg version="1.0" xmlns="http://www.w3.org/2000/svg"
 width="32" height="32" viewBox="0 0 852 796"
 preserveAspectRatio="xMidYMid meet">
<g transform="translate(0,796) scale(0.1,-0.1)"
fill="#000000" stroke="none">
<path d="M1365 7949 c-167 -21 -403 -97 -545 -176 -187 -104 -400 -288 -510
-441 -166 -230 -267 -483 -299 -747 -15 -123 -16 -5084 -1 -5205 89 -723 657
-1288 1375 -1370 73 -8 878 -10 2940 -8 l2840 3 100 23 c222 51 386 120 562
238 377 251 627 659 683 1114 14 117 14 5083 0 5200 -33 270 -136 530 -297
749 -69 94 -223 248 -323 322 -213 159 -481 266 -750 299 -105 13 -5672 12
-5775 -1z m5053 -4196 l-3 -2178 -816 -3 -816 -2 -6 37 c-3 21 -34 282 -69
581 l-63 543 -30 -33 c-16 -18 -99 -113 -183 -210 -174 -200 -243 -263 -450
-411 -284 -202 -400 -254 -805 -357 -264 -67 -284 -71 -651 -114 -270 -33
-384 -43 -397 -35 -18 9 -19 37 -19 838 0 724 2 830 15 841 12 10 27 9 77 -3
172 -43 464 -48 628 -12 269 59 503 183 696 368 119 113 191 208 290 382 61
108 75 141 67 154 -9 15 -85 16 -867 19 l-856 2 0 885 0 885 2130 0 2130 0 -2
-2177z"/>
</g>
</svg>
